<?xml version="1.0" standalone="no"?>
<!DOCTYPE svg PUBLIC "-//W3C//DTD SVG 20010904//EN"
 "http://www.w3.org/TR/2001/REC-SVG-20010904/DTD/svg10.dtd">
<svg version="1.0" xmlns="http://www.w3.org/2000/svg"
 width="512.000000pt" height="512.000000pt" viewBox="0 0 512.000000 512.000000"
 preserveAspectRatio="xMidYMid meet">

<g transform="translate(0.000000,512.000000) scale(0.100000,-0.100000)"
fill="#000000" stroke="none">
<path d="M735 4466 c-94 -41 -124 -168 -58 -247 45 -53 73 -59 277 -59 184 0
186 0 191 -22 7 -32 265 -1706 265 -1722 0 -8 -23 -18 -57 -25 -316 -62 -482
-426 -323 -706 32 -56 106 -136 150 -162 l29 -16 -30 -59 c-169 -334 47 -746
420 -800 337 -49 641 215 641 557 0 45 -25 167 -45 218 -7 16 15 17 364 17
204 0 371 -2 371 -3 0 -2 -9 -30 -20 -63 -111 -321 109 -677 449 -726 337 -49
641 215 641 557 0 45 -25 167 -45 216 -5 14 3 17 50 21 96 8 150 65 150 158 0
63 -16 95 -69 134 -27 21 -34 21 -1366 26 -1332 5 -1339 5 -1366 26 -53 39
-69 71 -69 134 0 63 16 95 69 134 27 21 35 21 1204 26 923 4 1182 8 1199 18
12 7 33 27 46 45 13 17 171 364 352 771 302 681 327 742 322 782 -6 53 -43
105 -91 128 -32 15 -76 16 -400 14 -350 -3 -366 -4 -392 -24 -53 -39 -69 -71
-69 -134 0 -63 16 -95 69 -134 25 -20 43 -21 253 -24 169 -2 224 -6 220 -15
-3 -7 -114 -258 -248 -559 l-243 -548 -918 0 -918 0 -5 23 c-8 37 -165 1060
-165 1078 0 15 15 18 124 21 135 3 154 10 200 72 29 39 29 133 0 172 -47 64
-62 69 -227 72 l-152 3 -34 227 c-43 294 -48 317 -79 354 -47 55 -65 58 -364
58 -204 -1 -281 -4 -303 -14z m1019 -3038 c86 -26 166 -136 166 -228 0 -124
-116 -240 -240 -240 -92 0 -202 80 -228 166 -28 94 -8 169 63 239 70 71 145
90 239 63z m1760 0 c86 -26 166 -136 166 -228 0 -124 -116 -240 -240 -240
-124 0 -240 116 -240 240 0 63 23 114 75 165 70 71 145 90 239 63z"/>
<path d="M2655 4306 c-37 -17 -70 -52 -84 -89 -7 -19 -11 -187 -11 -490 l0
-461 -122 121 c-132 130 -156 143 -235 128 -49 -9 -109 -69 -118 -118 -17 -88
-16 -90 283 -389 299 -299 300 -300 389 -283 33 5 76 44 315 283 299 299 300
301 283 389 -9 49 -69 109 -118 118 -79 15 -103 2 -234 -128 l-122 -120 -3
476 c-3 462 -4 476 -24 503 -11 15 -32 37 -46 47 -34 25 -113 32 -153 13z"/>
</g>
</svg>
