<svg width="30" height="24" viewBox="0 0 30 24" fill="none" xmlns="http://www.w3.org/2000/svg">
<path d="M30 0.837952L29.0713 3.33112H26.66L22.3175 18.2901H5.76875L0 4.57771H21.015L20.31 7.07088H3.76L7.43125 15.797H20.4662L24.7563 0.837952H30ZM10.625 19.5367C9.59 19.5367 8.75 20.3744 8.75 21.4066C8.75 22.44 9.59 23.2765 10.625 23.2765C11.66 23.2765 12.5 22.44 12.5 21.4066C12.5 20.3744 11.66 19.5367 10.625 19.5367ZM19.25 10.8106L16.875 19.5367C15.84 19.5367 15 20.3732 15 21.4066C15 22.44 15.84 23.2765 16.875 23.2765C17.91 23.2765 18.75 22.44 18.75 21.4066C18.75 20.3744 17.91 19.5367 16.875 19.5367L19.25 10.8106Z" fill="white"/>
</svg>
